<mxfile host="app.diagrams.net" modified="2024-04-10T15:05:53.915Z" agent="Mozilla/5.0 (Windows NT 10.0; Win64; x64) AppleWebKit/537.36 (KHTML, like Gecko) Chrome/123.0.0.0 Safari/537.36" etag="oTwgmpzMPNHG83vbyjfx" version="24.2.1" type="device">
  <diagram id="C5RBs43oDa-KdzZeNtuy" name="Page-1">
    <mxGraphModel dx="1114" dy="692" grid="1" gridSize="10" guides="1" tooltips="1" connect="1" arrows="1" fold="1" page="1" pageScale="1" pageWidth="827" pageHeight="1169" math="0" shadow="0">
      <root>
        <mxCell id="WIyWlLk6GJQsqaUBKTNV-0" />
        <mxCell id="WIyWlLk6GJQsqaUBKTNV-1" parent="WIyWlLk6GJQsqaUBKTNV-0" />
        <mxCell id="Xvi2F0tjaLTt6aDmlGNE-4" style="edgeStyle=orthogonalEdgeStyle;rounded=0;orthogonalLoop=1;jettySize=auto;html=1;exitX=0.5;exitY=1;exitDx=0;exitDy=0;entryX=0.5;entryY=0;entryDx=0;entryDy=0;" edge="1" parent="WIyWlLk6GJQsqaUBKTNV-1" source="Xvi2F0tjaLTt6aDmlGNE-0" target="Xvi2F0tjaLTt6aDmlGNE-28">
          <mxGeometry relative="1" as="geometry" />
        </mxCell>
        <mxCell id="Xvi2F0tjaLTt6aDmlGNE-0" value="Учитель, курс, список курсов" style="shape=parallelogram;perimeter=parallelogramPerimeter;whiteSpace=wrap;html=1;fixedSize=1;" vertex="1" parent="WIyWlLk6GJQsqaUBKTNV-1">
          <mxGeometry x="90" y="65" width="120" height="60" as="geometry" />
        </mxCell>
        <mxCell id="Xvi2F0tjaLTt6aDmlGNE-5" style="edgeStyle=orthogonalEdgeStyle;rounded=0;orthogonalLoop=1;jettySize=auto;html=1;exitX=0.5;exitY=1;exitDx=0;exitDy=0;" edge="1" parent="WIyWlLk6GJQsqaUBKTNV-1" source="Xvi2F0tjaLTt6aDmlGNE-1" target="Xvi2F0tjaLTt6aDmlGNE-2">
          <mxGeometry relative="1" as="geometry" />
        </mxCell>
        <mxCell id="Xvi2F0tjaLTt6aDmlGNE-7" value="Нет" style="edgeLabel;html=1;align=center;verticalAlign=middle;resizable=0;points=[];" vertex="1" connectable="0" parent="Xvi2F0tjaLTt6aDmlGNE-5">
          <mxGeometry x="-0.4" y="2" relative="1" as="geometry">
            <mxPoint as="offset" />
          </mxGeometry>
        </mxCell>
        <mxCell id="Xvi2F0tjaLTt6aDmlGNE-6" style="edgeStyle=orthogonalEdgeStyle;rounded=0;orthogonalLoop=1;jettySize=auto;html=1;exitX=1;exitY=0.5;exitDx=0;exitDy=0;entryX=0;entryY=0.5;entryDx=0;entryDy=0;" edge="1" parent="WIyWlLk6GJQsqaUBKTNV-1" source="Xvi2F0tjaLTt6aDmlGNE-1" target="Xvi2F0tjaLTt6aDmlGNE-3">
          <mxGeometry relative="1" as="geometry" />
        </mxCell>
        <mxCell id="Xvi2F0tjaLTt6aDmlGNE-8" value="Да" style="edgeLabel;html=1;align=center;verticalAlign=middle;resizable=0;points=[];" vertex="1" connectable="0" parent="Xvi2F0tjaLTt6aDmlGNE-6">
          <mxGeometry x="-0.4286" y="-2" relative="1" as="geometry">
            <mxPoint as="offset" />
          </mxGeometry>
        </mxCell>
        <mxCell id="Xvi2F0tjaLTt6aDmlGNE-1" value="Учитель прикреплен к 3-м курсам?" style="rhombus;whiteSpace=wrap;html=1;" vertex="1" parent="WIyWlLk6GJQsqaUBKTNV-1">
          <mxGeometry x="92.5" y="245" width="115" height="80" as="geometry" />
        </mxCell>
        <mxCell id="Xvi2F0tjaLTt6aDmlGNE-2" value="Учитель прикреплен к курсу" style="rounded=0;whiteSpace=wrap;html=1;" vertex="1" parent="WIyWlLk6GJQsqaUBKTNV-1">
          <mxGeometry x="87.5" y="375" width="120" height="60" as="geometry" />
        </mxCell>
        <mxCell id="Xvi2F0tjaLTt6aDmlGNE-3" value="Учитель не прикреплен к курсу" style="rounded=0;whiteSpace=wrap;html=1;" vertex="1" parent="WIyWlLk6GJQsqaUBKTNV-1">
          <mxGeometry x="250" y="255" width="120" height="60" as="geometry" />
        </mxCell>
        <mxCell id="Xvi2F0tjaLTt6aDmlGNE-9" style="edgeStyle=orthogonalEdgeStyle;rounded=0;orthogonalLoop=1;jettySize=auto;html=1;exitX=0.5;exitY=1;exitDx=0;exitDy=0;entryX=0.5;entryY=0;entryDx=0;entryDy=0;" edge="1" parent="WIyWlLk6GJQsqaUBKTNV-1" source="Xvi2F0tjaLTt6aDmlGNE-10" target="Xvi2F0tjaLTt6aDmlGNE-30">
          <mxGeometry relative="1" as="geometry" />
        </mxCell>
        <mxCell id="Xvi2F0tjaLTt6aDmlGNE-10" value="Студент, курс, список курсов" style="shape=parallelogram;perimeter=parallelogramPerimeter;whiteSpace=wrap;html=1;fixedSize=1;" vertex="1" parent="WIyWlLk6GJQsqaUBKTNV-1">
          <mxGeometry x="511.75" y="65" width="120" height="60" as="geometry" />
        </mxCell>
        <mxCell id="Xvi2F0tjaLTt6aDmlGNE-11" style="edgeStyle=orthogonalEdgeStyle;rounded=0;orthogonalLoop=1;jettySize=auto;html=1;exitX=0.5;exitY=1;exitDx=0;exitDy=0;" edge="1" parent="WIyWlLk6GJQsqaUBKTNV-1" source="Xvi2F0tjaLTt6aDmlGNE-15" target="Xvi2F0tjaLTt6aDmlGNE-16">
          <mxGeometry relative="1" as="geometry" />
        </mxCell>
        <mxCell id="Xvi2F0tjaLTt6aDmlGNE-12" value="Нет" style="edgeLabel;html=1;align=center;verticalAlign=middle;resizable=0;points=[];" vertex="1" connectable="0" parent="Xvi2F0tjaLTt6aDmlGNE-11">
          <mxGeometry x="-0.4" y="2" relative="1" as="geometry">
            <mxPoint as="offset" />
          </mxGeometry>
        </mxCell>
        <mxCell id="Xvi2F0tjaLTt6aDmlGNE-13" style="edgeStyle=orthogonalEdgeStyle;rounded=0;orthogonalLoop=1;jettySize=auto;html=1;exitX=1;exitY=0.5;exitDx=0;exitDy=0;entryX=0;entryY=0.5;entryDx=0;entryDy=0;" edge="1" parent="WIyWlLk6GJQsqaUBKTNV-1" source="Xvi2F0tjaLTt6aDmlGNE-15" target="Xvi2F0tjaLTt6aDmlGNE-17">
          <mxGeometry relative="1" as="geometry" />
        </mxCell>
        <mxCell id="Xvi2F0tjaLTt6aDmlGNE-14" value="Да" style="edgeLabel;html=1;align=center;verticalAlign=middle;resizable=0;points=[];" vertex="1" connectable="0" parent="Xvi2F0tjaLTt6aDmlGNE-13">
          <mxGeometry x="-0.4286" y="-2" relative="1" as="geometry">
            <mxPoint as="offset" />
          </mxGeometry>
        </mxCell>
        <mxCell id="Xvi2F0tjaLTt6aDmlGNE-15" value="Студент записан на 5 курсов?" style="rhombus;whiteSpace=wrap;html=1;" vertex="1" parent="WIyWlLk6GJQsqaUBKTNV-1">
          <mxGeometry x="516" y="245" width="111.5" height="80" as="geometry" />
        </mxCell>
        <mxCell id="Xvi2F0tjaLTt6aDmlGNE-16" value="Студент успешно записан на курс" style="rounded=0;whiteSpace=wrap;html=1;" vertex="1" parent="WIyWlLk6GJQsqaUBKTNV-1">
          <mxGeometry x="510" y="385" width="120" height="60" as="geometry" />
        </mxCell>
        <mxCell id="Xvi2F0tjaLTt6aDmlGNE-17" value="Студент не записан на курс" style="rounded=0;whiteSpace=wrap;html=1;" vertex="1" parent="WIyWlLk6GJQsqaUBKTNV-1">
          <mxGeometry x="662.5" y="255" width="120" height="60" as="geometry" />
        </mxCell>
        <mxCell id="Xvi2F0tjaLTt6aDmlGNE-19" style="edgeStyle=orthogonalEdgeStyle;rounded=0;orthogonalLoop=1;jettySize=auto;html=1;exitX=0.5;exitY=1;exitDx=0;exitDy=0;entryX=0.5;entryY=0;entryDx=0;entryDy=0;" edge="1" parent="WIyWlLk6GJQsqaUBKTNV-1" source="Xvi2F0tjaLTt6aDmlGNE-20" target="Xvi2F0tjaLTt6aDmlGNE-32">
          <mxGeometry relative="1" as="geometry" />
        </mxCell>
        <mxCell id="Xvi2F0tjaLTt6aDmlGNE-20" value="Студент, задание, ответ на задание" style="shape=parallelogram;perimeter=parallelogramPerimeter;whiteSpace=wrap;html=1;fixedSize=1;" vertex="1" parent="WIyWlLk6GJQsqaUBKTNV-1">
          <mxGeometry x="93.5" y="580" width="120" height="60" as="geometry" />
        </mxCell>
        <mxCell id="Xvi2F0tjaLTt6aDmlGNE-21" style="edgeStyle=orthogonalEdgeStyle;rounded=0;orthogonalLoop=1;jettySize=auto;html=1;exitX=0.5;exitY=1;exitDx=0;exitDy=0;" edge="1" parent="WIyWlLk6GJQsqaUBKTNV-1" source="Xvi2F0tjaLTt6aDmlGNE-25" target="Xvi2F0tjaLTt6aDmlGNE-26">
          <mxGeometry relative="1" as="geometry" />
        </mxCell>
        <mxCell id="Xvi2F0tjaLTt6aDmlGNE-22" value="Нет" style="edgeLabel;html=1;align=center;verticalAlign=middle;resizable=0;points=[];" vertex="1" connectable="0" parent="Xvi2F0tjaLTt6aDmlGNE-21">
          <mxGeometry x="-0.4" y="2" relative="1" as="geometry">
            <mxPoint as="offset" />
          </mxGeometry>
        </mxCell>
        <mxCell id="Xvi2F0tjaLTt6aDmlGNE-23" style="edgeStyle=orthogonalEdgeStyle;rounded=0;orthogonalLoop=1;jettySize=auto;html=1;exitX=1;exitY=0.5;exitDx=0;exitDy=0;entryX=0;entryY=0.5;entryDx=0;entryDy=0;" edge="1" parent="WIyWlLk6GJQsqaUBKTNV-1" source="Xvi2F0tjaLTt6aDmlGNE-25" target="Xvi2F0tjaLTt6aDmlGNE-27">
          <mxGeometry relative="1" as="geometry" />
        </mxCell>
        <mxCell id="Xvi2F0tjaLTt6aDmlGNE-24" value="Да" style="edgeLabel;html=1;align=center;verticalAlign=middle;resizable=0;points=[];" vertex="1" connectable="0" parent="Xvi2F0tjaLTt6aDmlGNE-23">
          <mxGeometry x="-0.4286" y="-2" relative="1" as="geometry">
            <mxPoint as="offset" />
          </mxGeometry>
        </mxCell>
        <mxCell id="Xvi2F0tjaLTt6aDmlGNE-25" value="Стоит ли оценка за задание после 5 дней после отправки?" style="rhombus;whiteSpace=wrap;html=1;" vertex="1" parent="WIyWlLk6GJQsqaUBKTNV-1">
          <mxGeometry x="93.5" y="755" width="123.25" height="110" as="geometry" />
        </mxCell>
        <mxCell id="Xvi2F0tjaLTt6aDmlGNE-26" value="Задание не проверено за 5 дней" style="rounded=0;whiteSpace=wrap;html=1;" vertex="1" parent="WIyWlLk6GJQsqaUBKTNV-1">
          <mxGeometry x="95.13" y="915" width="120" height="60" as="geometry" />
        </mxCell>
        <mxCell id="Xvi2F0tjaLTt6aDmlGNE-27" value="Задание проверено за 5 дней" style="rounded=0;whiteSpace=wrap;html=1;" vertex="1" parent="WIyWlLk6GJQsqaUBKTNV-1">
          <mxGeometry x="266.75" y="780" width="120" height="60" as="geometry" />
        </mxCell>
        <mxCell id="Xvi2F0tjaLTt6aDmlGNE-29" style="edgeStyle=orthogonalEdgeStyle;rounded=0;orthogonalLoop=1;jettySize=auto;html=1;exitX=0.5;exitY=1;exitDx=0;exitDy=0;entryX=0.5;entryY=0;entryDx=0;entryDy=0;" edge="1" parent="WIyWlLk6GJQsqaUBKTNV-1" source="Xvi2F0tjaLTt6aDmlGNE-28" target="Xvi2F0tjaLTt6aDmlGNE-1">
          <mxGeometry relative="1" as="geometry" />
        </mxCell>
        <mxCell id="Xvi2F0tjaLTt6aDmlGNE-28" value="Прикрепить учителя к курсу" style="rounded=0;whiteSpace=wrap;html=1;" vertex="1" parent="WIyWlLk6GJQsqaUBKTNV-1">
          <mxGeometry x="88.38" y="155" width="120" height="60" as="geometry" />
        </mxCell>
        <mxCell id="Xvi2F0tjaLTt6aDmlGNE-31" style="edgeStyle=orthogonalEdgeStyle;rounded=0;orthogonalLoop=1;jettySize=auto;html=1;exitX=0.5;exitY=1;exitDx=0;exitDy=0;entryX=0.5;entryY=0;entryDx=0;entryDy=0;" edge="1" parent="WIyWlLk6GJQsqaUBKTNV-1" source="Xvi2F0tjaLTt6aDmlGNE-30" target="Xvi2F0tjaLTt6aDmlGNE-15">
          <mxGeometry relative="1" as="geometry" />
        </mxCell>
        <mxCell id="Xvi2F0tjaLTt6aDmlGNE-30" value="Записать студента на курс" style="rounded=0;whiteSpace=wrap;html=1;" vertex="1" parent="WIyWlLk6GJQsqaUBKTNV-1">
          <mxGeometry x="516" y="155" width="120" height="60" as="geometry" />
        </mxCell>
        <mxCell id="Xvi2F0tjaLTt6aDmlGNE-33" style="edgeStyle=orthogonalEdgeStyle;rounded=0;orthogonalLoop=1;jettySize=auto;html=1;exitX=0.5;exitY=1;exitDx=0;exitDy=0;entryX=0.5;entryY=0;entryDx=0;entryDy=0;" edge="1" parent="WIyWlLk6GJQsqaUBKTNV-1" source="Xvi2F0tjaLTt6aDmlGNE-32" target="Xvi2F0tjaLTt6aDmlGNE-25">
          <mxGeometry relative="1" as="geometry" />
        </mxCell>
        <mxCell id="Xvi2F0tjaLTt6aDmlGNE-32" value="Проверить, что оценка выставлена вовремя" style="rounded=0;whiteSpace=wrap;html=1;" vertex="1" parent="WIyWlLk6GJQsqaUBKTNV-1">
          <mxGeometry x="93.5" y="670" width="120" height="60" as="geometry" />
        </mxCell>
        <mxCell id="Xvi2F0tjaLTt6aDmlGNE-34" style="edgeStyle=orthogonalEdgeStyle;rounded=0;orthogonalLoop=1;jettySize=auto;html=1;exitX=0.5;exitY=1;exitDx=0;exitDy=0;entryX=0.5;entryY=0;entryDx=0;entryDy=0;" edge="1" parent="WIyWlLk6GJQsqaUBKTNV-1" source="Xvi2F0tjaLTt6aDmlGNE-35" target="Xvi2F0tjaLTt6aDmlGNE-44">
          <mxGeometry relative="1" as="geometry" />
        </mxCell>
        <mxCell id="Xvi2F0tjaLTt6aDmlGNE-35" value="Студент, список студентов" style="shape=parallelogram;perimeter=parallelogramPerimeter;whiteSpace=wrap;html=1;fixedSize=1;" vertex="1" parent="WIyWlLk6GJQsqaUBKTNV-1">
          <mxGeometry x="510" y="580" width="120" height="60" as="geometry" />
        </mxCell>
        <mxCell id="Xvi2F0tjaLTt6aDmlGNE-36" style="edgeStyle=orthogonalEdgeStyle;rounded=0;orthogonalLoop=1;jettySize=auto;html=1;exitX=0.5;exitY=1;exitDx=0;exitDy=0;" edge="1" parent="WIyWlLk6GJQsqaUBKTNV-1" source="Xvi2F0tjaLTt6aDmlGNE-40" target="Xvi2F0tjaLTt6aDmlGNE-41">
          <mxGeometry relative="1" as="geometry" />
        </mxCell>
        <mxCell id="Xvi2F0tjaLTt6aDmlGNE-37" value="Нет" style="edgeLabel;html=1;align=center;verticalAlign=middle;resizable=0;points=[];" vertex="1" connectable="0" parent="Xvi2F0tjaLTt6aDmlGNE-36">
          <mxGeometry x="-0.4" y="2" relative="1" as="geometry">
            <mxPoint as="offset" />
          </mxGeometry>
        </mxCell>
        <mxCell id="Xvi2F0tjaLTt6aDmlGNE-38" style="edgeStyle=orthogonalEdgeStyle;rounded=0;orthogonalLoop=1;jettySize=auto;html=1;exitX=1;exitY=0.5;exitDx=0;exitDy=0;entryX=0;entryY=0.5;entryDx=0;entryDy=0;" edge="1" parent="WIyWlLk6GJQsqaUBKTNV-1" source="Xvi2F0tjaLTt6aDmlGNE-40" target="Xvi2F0tjaLTt6aDmlGNE-42">
          <mxGeometry relative="1" as="geometry" />
        </mxCell>
        <mxCell id="Xvi2F0tjaLTt6aDmlGNE-39" value="Да" style="edgeLabel;html=1;align=center;verticalAlign=middle;resizable=0;points=[];" vertex="1" connectable="0" parent="Xvi2F0tjaLTt6aDmlGNE-38">
          <mxGeometry x="-0.4286" y="-2" relative="1" as="geometry">
            <mxPoint as="offset" />
          </mxGeometry>
        </mxCell>
        <mxCell id="Xvi2F0tjaLTt6aDmlGNE-40" value="E-mail студента является уникальным?" style="rhombus;whiteSpace=wrap;html=1;" vertex="1" parent="WIyWlLk6GJQsqaUBKTNV-1">
          <mxGeometry x="510" y="755" width="123.25" height="110" as="geometry" />
        </mxCell>
        <mxCell id="Xvi2F0tjaLTt6aDmlGNE-41" value="E-mail не уникален" style="rounded=0;whiteSpace=wrap;html=1;" vertex="1" parent="WIyWlLk6GJQsqaUBKTNV-1">
          <mxGeometry x="511.63" y="915" width="120" height="60" as="geometry" />
        </mxCell>
        <mxCell id="Xvi2F0tjaLTt6aDmlGNE-42" value="E-mail уникален" style="rounded=0;whiteSpace=wrap;html=1;" vertex="1" parent="WIyWlLk6GJQsqaUBKTNV-1">
          <mxGeometry x="683.25" y="780" width="120" height="60" as="geometry" />
        </mxCell>
        <mxCell id="Xvi2F0tjaLTt6aDmlGNE-43" style="edgeStyle=orthogonalEdgeStyle;rounded=0;orthogonalLoop=1;jettySize=auto;html=1;exitX=0.5;exitY=1;exitDx=0;exitDy=0;entryX=0.5;entryY=0;entryDx=0;entryDy=0;" edge="1" parent="WIyWlLk6GJQsqaUBKTNV-1" source="Xvi2F0tjaLTt6aDmlGNE-44" target="Xvi2F0tjaLTt6aDmlGNE-40">
          <mxGeometry relative="1" as="geometry" />
        </mxCell>
        <mxCell id="Xvi2F0tjaLTt6aDmlGNE-44" value="Проверить уникальность e-mail" style="rounded=0;whiteSpace=wrap;html=1;" vertex="1" parent="WIyWlLk6GJQsqaUBKTNV-1">
          <mxGeometry x="510" y="670" width="120" height="60" as="geometry" />
        </mxCell>
        <mxCell id="Xvi2F0tjaLTt6aDmlGNE-45" value="" style="rounded=0;whiteSpace=wrap;html=1;fillColor=none;" vertex="1" parent="WIyWlLk6GJQsqaUBKTNV-1">
          <mxGeometry x="50" y="550" width="336" height="460" as="geometry" />
        </mxCell>
        <mxCell id="Xvi2F0tjaLTt6aDmlGNE-46" value="" style="rounded=0;whiteSpace=wrap;html=1;fillColor=none;" vertex="1" parent="WIyWlLk6GJQsqaUBKTNV-1">
          <mxGeometry x="50" y="20" width="336" height="460" as="geometry" />
        </mxCell>
        <mxCell id="Xvi2F0tjaLTt6aDmlGNE-47" value="" style="rounded=0;whiteSpace=wrap;html=1;fillColor=none;" vertex="1" parent="WIyWlLk6GJQsqaUBKTNV-1">
          <mxGeometry x="470" y="20" width="336" height="460" as="geometry" />
        </mxCell>
        <mxCell id="Xvi2F0tjaLTt6aDmlGNE-48" value="" style="rounded=0;whiteSpace=wrap;html=1;fillColor=none;" vertex="1" parent="WIyWlLk6GJQsqaUBKTNV-1">
          <mxGeometry x="470" y="550" width="336" height="460" as="geometry" />
        </mxCell>
      </root>
    </mxGraphModel>
  </diagram>
</mxfile>
